<?xml version="1.0" encoding="UTF-8"?><svg xmlns="http://www.w3.org/2000/svg" xmlns:xlink="http://www.w3.org/1999/xlink" contentScriptType="text/ecmascript" width="450" zoomAndPan="magnify" contentStyleType="text/css" viewBox="0 0 450 599.999999" height="900" preserveAspectRatio="xMidYMid meet" version="1.0"><defs><clipPath id="clip-0"><path d="M 352 374 L 427.5 374 L 427.5 412 L 352 412 Z M 352 374 " clip-rule="nonzero"/></clipPath><clipPath id="clip-1"><path d="M 246 126.761719 L 389 126.761719 L 389 413 L 246 413 Z M 246 126.761719 " clip-rule="nonzero"/></clipPath><clipPath id="clip-2"><path d="M 110 236 L 135 236 L 135 413.261719 L 110 413.261719 Z M 110 236 " clip-rule="nonzero"/></clipPath><clipPath id="clip-3"><path d="M 60 236 L 88 236 L 88 413.261719 L 60 413.261719 Z M 60 236 " clip-rule="nonzero"/></clipPath><clipPath id="clip-4"><path d="M 120 230 L 171 230 L 171 413.261719 L 120 413.261719 Z M 120 230 " clip-rule="nonzero"/></clipPath><clipPath id="clip-5"><path d="M 22.5 411 L 427.5 411 L 427.5 413.261719 L 22.5 413.261719 Z M 22.5 411 " clip-rule="nonzero"/></clipPath></defs><path fill="rgb(94.898987%, 94.898987%, 94.898987%)" d="M 46.4375 368.378906 L 34.019531 357.882812 C 34.730469 353.675781 35.9375 349.613281 37.640625 345.699219 C 39.34375 341.785156 41.492188 338.136719 44.085938 334.746094 C 44.503906 349.910156 60.0625 360.066406 65.417969 374.265625 C 66.234375 376.484375 66.796875 378.769531 67.101562 381.113281 C 67.402344 383.460938 67.441406 385.8125 67.214844 388.167969 C 66.992188 390.523438 66.503906 392.820312 65.761719 395.066406 C 65.015625 397.3125 64.03125 399.449219 62.804688 401.472656 L 61.558594 412.929688 C 59.867188 412.050781 58.230469 411.082031 56.644531 410.027344 C 55.058594 408.96875 53.535156 407.828125 52.070312 406.609375 C 50.609375 405.386719 49.21875 404.089844 47.894531 402.71875 C 46.574219 401.347656 45.328125 399.910156 44.164062 398.402344 C 42.996094 396.898438 41.914062 395.332031 40.917969 393.710938 C 39.921875 392.085938 39.015625 390.414062 38.199219 388.695312 C 37.382812 386.972656 36.660156 385.214844 36.035156 383.414062 C 35.410156 381.617188 34.882812 379.789062 34.457031 377.933594 C 33.53125 373.730469 33.144531 369.480469 33.292969 365.179688 C 39.652344 367.113281 46.4375 368.378906 46.4375 368.378906 Z M 46.4375 368.378906 " fill-opacity="1" fill-rule="nonzero"/><g clip-path="url(#clip-0)"><path fill="rgb(94.898987%, 94.898987%, 94.898987%)" d="M 394.492188 388.457031 L 403.160156 374.707031 C 407.433594 374.824219 411.625 375.449219 415.742188 376.585938 C 419.859375 377.722656 423.777344 379.339844 427.5 381.433594 C 412.527344 383.964844 404.632812 400.773438 391.308594 408.054688 C 389.222656 409.171875 387.035156 410.046875 384.753906 410.675781 C 382.46875 411.300781 380.144531 411.667969 377.777344 411.773438 C 375.414062 411.878906 373.066406 411.722656 370.734375 411.296875 C 368.40625 410.875 366.148438 410.199219 363.972656 409.269531 L 352.441406 409.632812 C 353.078125 407.839844 353.808594 406.085938 354.636719 404.367188 C 355.460938 402.652344 356.378906 400.984375 357.382812 399.367188 C 358.390625 397.75 359.480469 396.195312 360.65625 394.695312 C 361.832031 393.195312 363.082031 391.765625 364.414062 390.398438 C 365.742188 389.035156 367.144531 387.746094 368.613281 386.535156 C 370.082031 385.320312 371.613281 384.191406 373.203125 383.144531 C 374.796875 382.097656 376.4375 381.136719 378.132812 380.269531 C 379.828125 379.398438 381.566406 378.621094 383.347656 377.9375 C 387.382812 376.4375 391.542969 375.460938 395.824219 375.007812 C 394.796875 381.566406 394.492188 388.457031 394.492188 388.457031 Z M 394.492188 388.457031 " fill-opacity="1" fill-rule="nonzero"/></g><path fill="rgb(94.898987%, 94.898987%, 94.898987%)" d="M 120.035156 343.640625 L 71.957031 340.820312 L 78.546875 294.265625 L 120.914062 339.882812 Z M 120.035156 343.640625 " fill-opacity="1" fill-rule="nonzero"/><path fill="rgb(94.898987%, 94.898987%, 94.898987%)" d="M 113.914062 391.132812 L 64.957031 387.84375 L 71.488281 345.523438 L 114.136719 387.851562 Z M 113.914062 391.132812 " fill-opacity="1" fill-rule="nonzero"/><g clip-path="url(#clip-1)"><path fill="rgb(24.708557%, 23.919678%, 33.729553%)" d="M 387.398438 194.75 L 387.398438 151.746094 C 387.398438 150.933594 387.359375 150.117188 387.28125 149.308594 C 387.199219 148.496094 387.078125 147.691406 386.921875 146.890625 C 386.761719 146.09375 386.5625 145.300781 386.328125 144.523438 C 386.089844 143.742188 385.816406 142.976562 385.503906 142.222656 C 385.191406 141.46875 384.84375 140.734375 384.457031 140.015625 C 384.074219 139.296875 383.652344 138.597656 383.199219 137.921875 C 382.746094 137.242188 382.261719 136.589844 381.746094 135.957031 C 381.226562 135.328125 380.679688 134.726562 380.101562 134.148438 C 379.527344 133.570312 378.921875 133.023438 378.289062 132.507812 C 377.660156 131.992188 377.003906 131.507812 376.328125 131.054688 C 375.648438 130.601562 374.949219 130.183594 374.230469 129.796875 C 373.511719 129.414062 372.773438 129.066406 372.019531 128.753906 C 371.265625 128.441406 370.5 128.167969 369.71875 127.929688 C 368.9375 127.695312 368.144531 127.496094 367.347656 127.335938 C 366.546875 127.179688 365.738281 127.058594 364.925781 126.980469 C 364.117188 126.898438 363.300781 126.859375 362.484375 126.859375 L 271.285156 126.859375 C 270.46875 126.859375 269.65625 126.898438 268.84375 126.980469 C 268.03125 127.058594 267.226562 127.179688 266.425781 127.335938 C 265.625 127.496094 264.835938 127.695312 264.054688 127.929688 C 263.273438 128.167969 262.503906 128.441406 261.75 128.753906 C 260.996094 129.066406 260.261719 129.414062 259.539062 129.796875 C 258.820312 130.183594 258.121094 130.601562 257.445312 131.054688 C 256.765625 131.507812 256.109375 131.992188 255.480469 132.507812 C 254.847656 133.023438 254.246094 133.570312 253.667969 134.148438 C 253.089844 134.726562 252.542969 135.328125 252.027344 135.957031 C 251.507812 136.589844 251.023438 137.242188 250.570312 137.921875 C 250.117188 138.597656 249.699219 139.296875 249.3125 140.015625 C 248.929688 140.734375 248.578125 141.46875 248.269531 142.222656 C 247.957031 142.976562 247.679688 143.742188 247.445312 144.523438 C 247.207031 145.300781 247.007812 146.09375 246.851562 146.890625 C 246.691406 147.691406 246.570312 148.496094 246.492188 149.308594 C 246.410156 150.117188 246.371094 150.933594 246.371094 151.746094 L 246.371094 387.664062 C 246.371094 388.476562 246.410156 389.292969 246.492188 390.101562 C 246.570312 390.914062 246.691406 391.71875 246.851562 392.519531 C 247.007812 393.316406 247.207031 394.109375 247.445312 394.886719 C 247.679688 395.667969 247.957031 396.433594 248.269531 397.1875 C 248.578125 397.941406 248.929688 398.675781 249.3125 399.394531 C 249.699219 400.113281 250.117188 400.8125 250.570312 401.492188 C 251.023438 402.167969 251.507812 402.820312 252.027344 403.453125 C 252.542969 404.082031 253.089844 404.683594 253.667969 405.261719 C 254.246094 405.839844 254.847656 406.386719 255.480469 406.902344 C 256.109375 407.417969 256.765625 407.90625 257.445312 408.355469 C 258.121094 408.808594 258.820312 409.230469 259.539062 409.613281 C 260.261719 409.996094 260.996094 410.34375 261.75 410.65625 C 262.503906 410.96875 263.273438 411.242188 264.054688 411.480469 C 264.832031 411.714844 265.625 411.914062 266.425781 412.074219 C 267.226562 412.234375 268.03125 412.351562 268.84375 412.433594 C 269.65625 412.511719 270.46875 412.550781 271.285156 412.550781 L 362.484375 412.550781 C 363.300781 412.550781 364.117188 412.511719 364.925781 412.433594 C 365.738281 412.351562 366.546875 412.234375 367.347656 412.074219 C 368.144531 411.914062 368.9375 411.714844 369.71875 411.480469 C 370.5 411.242188 371.265625 410.96875 372.019531 410.65625 C 372.773438 410.34375 373.511719 409.996094 374.230469 409.613281 C 374.949219 409.230469 375.648438 408.808594 376.328125 408.355469 C 377.003906 407.90625 377.660156 407.417969 378.289062 406.902344 C 378.921875 406.386719 379.527344 405.839844 380.101562 405.261719 C 380.679688 404.683594 381.226562 404.082031 381.746094 403.453125 C 382.261719 402.820312 382.746094 402.167969 383.199219 401.492188 C 383.652344 400.8125 384.074219 400.113281 384.457031 399.394531 C 384.84375 398.675781 385.191406 397.941406 385.503906 397.1875 C 385.816406 396.433594 386.089844 395.667969 386.328125 394.886719 C 386.5625 394.109375 386.761719 393.316406 386.921875 392.519531 C 387.078125 391.71875 387.199219 390.914062 387.28125 390.101562 C 387.359375 389.292969 387.398438 388.476562 387.398438 387.664062 L 387.398438 225.359375 C 387.609375 225.359375 387.808594 225.320312 388 225.242188 C 388.191406 225.160156 388.363281 225.046875 388.511719 224.898438 C 388.65625 224.753906 388.769531 224.582031 388.851562 224.390625 C 388.929688 224.199219 388.972656 224 388.972656 223.789062 L 388.972656 196.320312 C 388.972656 196.113281 388.929688 195.910156 388.851562 195.71875 C 388.769531 195.527344 388.65625 195.355469 388.511719 195.210938 C 388.363281 195.0625 388.191406 194.949219 388 194.871094 C 387.808594 194.789062 387.609375 194.75 387.398438 194.75 Z M 387.398438 194.75 " fill-opacity="1" fill-rule="nonzero"/></g><path fill="rgb(100%, 100%, 100%)" d="M 382.097656 151.917969 L 382.097656 387.492188 C 382.097656 388.097656 382.066406 388.699219 382.007812 389.300781 C 381.949219 389.902344 381.863281 390.5 381.746094 391.09375 C 381.628906 391.6875 381.480469 392.273438 381.308594 392.851562 C 381.132812 393.429688 380.929688 394 380.699219 394.558594 C 380.472656 395.117188 380.214844 395.664062 379.929688 396.195312 C 379.648438 396.730469 379.339844 397.25 379.003906 397.753906 C 378.671875 398.257812 378.3125 398.742188 377.929688 399.210938 C 377.550781 399.679688 377.144531 400.128906 376.71875 400.558594 C 376.292969 400.988281 375.847656 401.398438 375.382812 401.785156 C 374.917969 402.171875 374.4375 402.53125 373.933594 402.871094 C 373.433594 403.210938 372.917969 403.523438 372.386719 403.8125 C 371.855469 404.101562 371.3125 404.363281 370.753906 404.601562 C 370.195312 404.835938 369.628906 405.042969 369.050781 405.222656 C 368.472656 405.402344 367.890625 405.554688 367.296875 405.679688 C 366.707031 405.804688 366.109375 405.898438 365.507812 405.960938 C 364.90625 406.027344 364.300781 406.0625 363.695312 406.070312 C 363.628906 406.078125 363.5625 406.078125 363.492188 406.078125 L 271.851562 406.078125 C 271.242188 406.078125 270.632812 406.046875 270.027344 405.988281 C 269.417969 405.929688 268.816406 405.839844 268.21875 405.71875 C 267.621094 405.601562 267.03125 405.453125 266.449219 405.277344 C 265.867188 405.101562 265.292969 404.894531 264.730469 404.660156 C 264.167969 404.429688 263.617188 404.167969 263.078125 403.882812 C 262.542969 403.59375 262.019531 403.28125 261.515625 402.945312 C 261.007812 402.605469 260.519531 402.242188 260.046875 401.859375 C 259.578125 401.472656 259.125 401.0625 258.695312 400.632812 C 258.265625 400.203125 257.855469 399.753906 257.46875 399.28125 C 257.082031 398.8125 256.71875 398.324219 256.382812 397.816406 C 256.042969 397.3125 255.730469 396.789062 255.441406 396.253906 C 255.15625 395.714844 254.894531 395.167969 254.664062 394.605469 C 254.429688 394.042969 254.222656 393.46875 254.046875 392.886719 C 253.871094 392.304688 253.722656 391.714844 253.601562 391.117188 C 253.484375 390.519531 253.394531 389.921875 253.335938 389.316406 C 253.277344 388.707031 253.246094 388.101562 253.246094 387.492188 L 253.246094 151.917969 C 253.246094 151.308594 253.277344 150.703125 253.335938 150.097656 C 253.394531 149.492188 253.484375 148.890625 253.605469 148.292969 C 253.722656 147.695312 253.871094 147.105469 254.046875 146.523438 C 254.226562 145.941406 254.429688 145.367188 254.664062 144.804688 C 254.894531 144.242188 255.15625 143.695312 255.445312 143.15625 C 255.730469 142.621094 256.042969 142.097656 256.382812 141.59375 C 256.722656 141.085938 257.082031 140.597656 257.46875 140.128906 C 257.855469 139.65625 258.265625 139.207031 258.695312 138.777344 C 259.125 138.347656 259.578125 137.9375 260.046875 137.550781 C 260.519531 137.164062 261.007812 136.804688 261.515625 136.464844 C 262.023438 136.128906 262.542969 135.816406 263.082031 135.527344 C 263.617188 135.242188 264.167969 134.980469 264.730469 134.75 C 265.292969 134.515625 265.867188 134.308594 266.449219 134.132812 C 267.03125 133.957031 267.625 133.808594 268.21875 133.691406 C 268.816406 133.570312 269.421875 133.484375 270.027344 133.421875 C 270.632812 133.363281 271.242188 133.332031 271.851562 133.332031 L 282.972656 133.332031 C 282.835938 133.667969 282.71875 134.007812 282.625 134.355469 C 282.53125 134.707031 282.457031 135.058594 282.40625 135.414062 C 282.355469 135.773438 282.328125 136.128906 282.320312 136.492188 C 282.3125 136.851562 282.328125 137.210938 282.363281 137.570312 C 282.402344 137.929688 282.460938 138.285156 282.539062 138.636719 C 282.621094 138.988281 282.722656 139.332031 282.84375 139.671875 C 282.96875 140.011719 283.113281 140.34375 283.273438 140.664062 C 283.4375 140.984375 283.621094 141.296875 283.820312 141.59375 C 284.023438 141.894531 284.242188 142.179688 284.480469 142.453125 C 284.714844 142.726562 284.96875 142.984375 285.234375 143.222656 C 285.503906 143.464844 285.785156 143.691406 286.082031 143.898438 C 286.375 144.105469 286.683594 144.292969 287 144.464844 C 287.320312 144.632812 287.648438 144.78125 287.984375 144.914062 C 288.320312 145.042969 288.664062 145.152344 289.015625 145.238281 C 289.367188 145.324219 289.71875 145.390625 290.078125 145.4375 C 290.4375 145.480469 290.796875 145.503906 291.15625 145.503906 L 343.40625 145.503906 C 343.765625 145.503906 344.125 145.480469 344.484375 145.433594 C 344.839844 145.390625 345.195312 145.324219 345.546875 145.234375 C 345.894531 145.148438 346.238281 145.039062 346.574219 144.90625 C 346.910156 144.777344 347.238281 144.628906 347.554688 144.457031 C 347.875 144.289062 348.179688 144.097656 348.476562 143.890625 C 348.769531 143.683594 349.050781 143.460938 349.320312 143.21875 C 349.585938 142.976562 349.839844 142.71875 350.074219 142.445312 C 350.3125 142.175781 350.53125 141.886719 350.730469 141.589844 C 350.933594 141.289062 351.113281 140.980469 351.277344 140.65625 C 351.441406 140.335938 351.582031 140.007812 351.707031 139.667969 C 351.828125 139.328125 351.929688 138.984375 352.011719 138.632812 C 352.089844 138.28125 352.148438 137.925781 352.1875 137.566406 C 352.222656 137.207031 352.238281 136.847656 352.230469 136.488281 C 352.226562 136.128906 352.195312 135.769531 352.144531 135.414062 C 352.09375 135.058594 352.023438 134.703125 351.929688 134.355469 C 351.832031 134.007812 351.71875 133.667969 351.582031 133.332031 L 363.492188 133.332031 C 364.101562 133.332031 364.710938 133.363281 365.316406 133.421875 C 365.921875 133.484375 366.527344 133.574219 367.125 133.691406 C 367.722656 133.808594 368.3125 133.957031 368.894531 134.132812 C 369.476562 134.3125 370.050781 134.515625 370.613281 134.75 C 371.175781 134.980469 371.726562 135.242188 372.261719 135.527344 C 372.800781 135.816406 373.324219 136.128906 373.828125 136.46875 C 374.335938 136.804688 374.824219 137.167969 375.296875 137.554688 C 375.765625 137.941406 376.21875 138.347656 376.648438 138.777344 C 377.078125 139.207031 377.488281 139.660156 377.875 140.128906 C 378.261719 140.601562 378.625 141.089844 378.960938 141.59375 C 379.300781 142.101562 379.613281 142.621094 379.902344 143.160156 C 380.1875 143.695312 380.449219 144.246094 380.679688 144.808594 C 380.914062 145.371094 381.121094 145.941406 381.296875 146.523438 C 381.472656 147.105469 381.621094 147.695312 381.738281 148.292969 C 381.859375 148.890625 381.949219 149.492188 382.007812 150.097656 C 382.066406 150.703125 382.097656 151.308594 382.097656 151.917969 Z M 382.097656 151.917969 " fill-opacity="1" fill-rule="nonzero"/><path fill="rgb(24.708557%, 23.919678%, 33.729553%)" d="M 361.921875 400.328125 C 361.921875 402.769531 361.84375 405.1875 361.691406 407.585938 C 361.621094 407.59375 361.554688 407.597656 361.488281 407.597656 L 269.847656 407.597656 C 268.816406 407.597656 267.792969 407.511719 266.777344 407.34375 C 265.761719 407.171875 264.769531 406.921875 263.796875 406.585938 C 262.820312 406.253906 261.882812 405.839844 260.976562 405.351562 C 260.074219 404.859375 259.214844 404.296875 258.402344 403.667969 C 257.589844 403.035156 256.835938 402.339844 256.140625 401.582031 C 255.445312 400.824219 254.816406 400.015625 254.253906 399.152344 C 253.691406 398.289062 253.203125 397.390625 252.792969 396.445312 C 252.378906 395.503906 252.050781 394.535156 251.796875 393.535156 C 251.621094 392.835938 251.488281 392.125 251.398438 391.40625 C 251.292969 390.613281 251.242188 389.8125 251.242188 389.011719 L 251.242188 284.03125 C 258.308594 284.378906 265.285156 285.363281 272.171875 286.984375 C 272.84375 287.136719 273.511719 287.304688 274.175781 287.472656 C 274.21875 287.480469 274.261719 287.496094 274.304688 287.503906 C 274.976562 287.675781 275.644531 287.851562 276.308594 288.035156 C 283.390625 289.980469 290.230469 292.574219 296.820312 295.8125 C 303.410156 299.054688 309.636719 302.886719 315.496094 307.3125 C 316.171875 307.816406 316.839844 308.332031 317.503906 308.855469 L 317.628906 308.953125 C 318.742188 309.828125 319.835938 310.722656 320.910156 311.644531 C 321.152344 311.84375 321.390625 312.050781 321.625 312.261719 C 322.203125 312.761719 322.785156 313.269531 323.347656 313.78125 C 329.597656 319.402344 335.175781 325.625 340.082031 332.449219 C 344.988281 339.273438 349.105469 346.539062 352.441406 354.253906 C 352.660156 354.753906 352.875 355.261719 353.085938 355.769531 C 353.167969 355.976562 353.253906 356.183594 353.339844 356.390625 C 353.417969 356.578125 353.496094 356.769531 353.570312 356.957031 C 356.335938 363.851562 358.421875 370.945312 359.828125 378.242188 C 361.230469 385.535156 361.929688 392.898438 361.921875 400.328125 Z M 361.921875 400.328125 " fill-opacity="1" fill-rule="nonzero"/><path fill="rgb(24.708557%, 23.919678%, 33.729553%)" d="M 246.875 218.808594 C 246.59375 218.808594 246.324219 218.753906 246.0625 218.644531 C 245.804688 218.539062 245.574219 218.382812 245.375 218.1875 C 245.175781 217.988281 245.023438 217.757812 244.917969 217.5 C 244.808594 217.238281 244.753906 216.96875 244.753906 216.6875 L 244.753906 202.28125 C 244.753906 202 244.808594 201.730469 244.914062 201.472656 C 245.023438 201.210938 245.175781 200.984375 245.375 200.785156 C 245.574219 200.585938 245.804688 200.433594 246.0625 200.324219 C 246.324219 200.21875 246.59375 200.164062 246.875 200.164062 C 247.15625 200.164062 247.425781 200.21875 247.6875 200.324219 C 247.945312 200.433594 248.175781 200.585938 248.375 200.785156 C 248.574219 200.984375 248.726562 201.210938 248.835938 201.472656 C 248.941406 201.730469 248.996094 202 248.996094 202.28125 L 248.996094 216.6875 C 248.996094 216.96875 248.941406 217.238281 248.832031 217.5 C 248.726562 217.757812 248.574219 217.988281 248.375 218.1875 C 248.175781 218.382812 247.945312 218.539062 247.6875 218.644531 C 247.425781 218.753906 247.15625 218.808594 246.875 218.808594 Z M 246.875 218.808594 " fill-opacity="1" fill-rule="nonzero"/><path fill="rgb(24.708557%, 23.919678%, 33.729553%)" d="M 246.449219 190.839844 C 246.167969 190.839844 245.898438 190.785156 245.640625 190.679688 C 245.378906 190.570312 245.152344 190.417969 244.953125 190.21875 C 244.753906 190.023438 244.601562 189.792969 244.492188 189.53125 C 244.382812 189.273438 244.332031 189.003906 244.332031 188.722656 L 244.332031 174.316406 C 244.332031 174.035156 244.382812 173.765625 244.492188 173.503906 C 244.597656 173.246094 244.753906 173.015625 244.953125 172.816406 C 245.148438 172.621094 245.378906 172.464844 245.640625 172.359375 C 245.898438 172.25 246.167969 172.199219 246.449219 172.199219 C 246.730469 172.199219 247.003906 172.25 247.261719 172.359375 C 247.523438 172.464844 247.75 172.621094 247.949219 172.816406 C 248.148438 173.015625 248.300781 173.246094 248.410156 173.503906 C 248.519531 173.765625 248.570312 174.035156 248.570312 174.316406 L 248.570312 188.722656 C 248.570312 189.003906 248.515625 189.273438 248.410156 189.53125 C 248.300781 189.792969 248.148438 190.023438 247.949219 190.21875 C 247.75 190.417969 247.523438 190.570312 247.261719 190.679688 C 247.003906 190.785156 246.730469 190.839844 246.449219 190.839844 Z M 246.449219 190.839844 " fill-opacity="1" fill-rule="nonzero"/><path fill="rgb(100%, 100%, 100%)" d="M 302.863281 135.757812 C 302.863281 135.476562 302.917969 135.207031 303.027344 134.945312 C 303.132812 134.6875 303.289062 134.457031 303.484375 134.257812 C 303.683594 134.0625 303.914062 133.90625 304.175781 133.800781 C 304.433594 133.691406 304.703125 133.640625 304.984375 133.636719 L 319.40625 133.636719 C 319.6875 133.636719 319.960938 133.691406 320.21875 133.796875 C 320.480469 133.90625 320.710938 134.058594 320.910156 134.257812 C 321.109375 134.457031 321.261719 134.683594 321.371094 134.945312 C 321.476562 135.207031 321.53125 135.476562 321.53125 135.757812 C 321.53125 136.039062 321.476562 136.308594 321.371094 136.570312 C 321.261719 136.828125 321.109375 137.058594 320.910156 137.257812 C 320.710938 137.457031 320.480469 137.609375 320.21875 137.714844 C 319.960938 137.824219 319.6875 137.875 319.40625 137.875 L 304.984375 137.875 C 304.703125 137.875 304.433594 137.820312 304.175781 137.714844 C 303.914062 137.605469 303.683594 137.453125 303.484375 137.253906 C 303.289062 137.054688 303.132812 136.828125 303.027344 136.566406 C 302.917969 136.308594 302.863281 136.039062 302.863281 135.757812 Z M 302.863281 135.757812 " fill-opacity="1" fill-rule="nonzero"/><path fill="rgb(24.708557%, 23.919678%, 33.729553%)" d="M 246.875 243.382812 C 246.59375 243.382812 246.324219 243.328125 246.0625 243.222656 C 245.804688 243.113281 245.574219 242.960938 245.375 242.761719 C 245.175781 242.5625 245.023438 242.335938 244.917969 242.074219 C 244.808594 241.816406 244.753906 241.546875 244.753906 241.265625 L 244.753906 226.859375 C 244.753906 226.578125 244.808594 226.308594 244.914062 226.046875 C 245.023438 225.789062 245.175781 225.558594 245.375 225.359375 C 245.574219 225.160156 245.804688 225.007812 246.0625 224.902344 C 246.324219 224.792969 246.59375 224.738281 246.875 224.738281 C 247.15625 224.738281 247.425781 224.792969 247.6875 224.902344 C 247.945312 225.007812 248.175781 225.160156 248.375 225.359375 C 248.574219 225.558594 248.726562 225.789062 248.835938 226.046875 C 248.941406 226.308594 248.996094 226.578125 248.996094 226.859375 L 248.996094 241.265625 C 248.996094 241.546875 248.941406 241.816406 248.832031 242.074219 C 248.726562 242.335938 248.574219 242.5625 248.375 242.761719 C 248.175781 242.960938 247.945312 243.113281 247.6875 243.222656 C 247.425781 243.328125 247.15625 243.382812 246.875 243.382812 Z M 246.875 243.382812 " fill-opacity="1" fill-rule="nonzero"/><path fill="rgb(100%, 100%, 100%)" d="M 329.585938 135.757812 C 329.585938 136.039062 329.53125 136.308594 329.425781 136.566406 C 329.316406 136.828125 329.164062 137.054688 328.964844 137.253906 C 328.765625 137.453125 328.535156 137.605469 328.277344 137.714844 C 328.015625 137.820312 327.746094 137.875 327.464844 137.875 C 327.183594 137.875 326.914062 137.820312 326.652344 137.714844 C 326.394531 137.605469 326.164062 137.453125 325.964844 137.253906 C 325.765625 137.054688 325.613281 136.828125 325.507812 136.566406 C 325.398438 136.308594 325.34375 136.039062 325.34375 135.757812 C 325.34375 135.476562 325.398438 135.207031 325.507812 134.945312 C 325.613281 134.6875 325.765625 134.457031 325.964844 134.257812 C 326.164062 134.058594 326.394531 133.90625 326.652344 133.800781 C 326.914062 133.691406 327.183594 133.636719 327.464844 133.636719 C 327.746094 133.636719 328.015625 133.691406 328.277344 133.800781 C 328.535156 133.90625 328.765625 134.058594 328.964844 134.257812 C 329.164062 134.457031 329.316406 134.6875 329.425781 134.945312 C 329.53125 135.207031 329.585938 135.476562 329.585938 135.757812 Z M 329.585938 135.757812 " fill-opacity="1" fill-rule="nonzero"/><path fill="rgb(0%, 0%, 0%)" d="M 319.636719 389.886719 C 319.632812 388.789062 319.6875 387.695312 319.796875 386.605469 C 319.902344 385.511719 320.0625 384.429688 320.277344 383.351562 C 320.492188 382.277344 320.757812 381.214844 321.078125 380.164062 C 321.394531 379.113281 321.765625 378.082031 322.183594 377.070312 C 322.605469 376.054688 323.074219 375.066406 323.589844 374.097656 C 324.109375 373.128906 324.671875 372.191406 325.28125 371.277344 C 325.894531 370.367188 326.546875 369.488281 327.242188 368.636719 C 327.9375 367.789062 328.675781 366.980469 329.453125 366.203125 C 330.230469 365.425781 331.042969 364.691406 331.890625 363.996094 C 332.738281 363.300781 333.621094 362.648438 334.535156 362.035156 C 335.445312 361.425781 336.386719 360.863281 337.355469 360.347656 C 338.324219 359.828125 339.316406 359.363281 340.332031 358.941406 C 341.347656 358.523438 342.378906 358.152344 343.429688 357.835938 C 344.480469 357.515625 345.546875 357.25 346.621094 357.035156 C 347.699219 356.820312 348.785156 356.660156 349.878906 356.554688 C 350.972656 356.445312 352.066406 356.390625 353.164062 356.390625 L 353.339844 356.390625 C 353.253906 356.183594 353.167969 355.976562 353.085938 355.769531 C 352.871094 355.261719 352.660156 354.753906 352.441406 354.253906 L 319.636719 354.253906 L 319.636719 312.261719 L 321.625 312.261719 C 321.390625 312.050781 321.152344 311.84375 320.910156 311.644531 C 319.832031 310.726562 318.738281 309.828125 317.628906 308.953125 L 317.503906 308.855469 L 317.503906 310.125 L 276.308594 310.125 L 276.308594 288.035156 C 275.644531 287.851562 274.976562 287.675781 274.304688 287.503906 C 274.261719 287.496094 274.21875 287.480469 274.175781 287.472656 L 274.175781 310.125 L 253.246094 310.125 L 253.246094 312.261719 L 274.175781 312.261719 L 274.175781 354.253906 L 253.246094 354.253906 L 253.246094 356.390625 L 274.175781 356.390625 L 274.175781 389.886719 L 253.402344 389.886719 C 253.492188 390.605469 253.625 391.316406 253.804688 392.019531 L 274.175781 392.019531 L 274.175781 406.078125 L 276.308594 406.078125 L 276.308594 392.019531 L 317.503906 392.019531 L 317.503906 406.078125 L 319.636719 406.078125 L 319.636719 392.019531 L 355.574219 392.019531 L 355.574219 389.886719 Z M 317.503906 389.886719 L 276.308594 389.886719 L 276.308594 356.390625 L 317.503906 356.390625 Z M 317.503906 354.253906 L 276.308594 354.253906 L 276.308594 353.414062 C 276.308594 352.066406 276.375 350.722656 276.507812 349.382812 C 276.640625 348.039062 276.835938 346.707031 277.101562 345.386719 C 277.363281 344.066406 277.691406 342.757812 278.082031 341.46875 C 278.472656 340.179688 278.929688 338.914062 279.445312 337.667969 C 279.960938 336.421875 280.539062 335.203125 281.171875 334.015625 C 281.808594 332.828125 282.5 331.671875 283.25 330.550781 C 284 329.433594 284.804688 328.351562 285.660156 327.308594 C 286.515625 326.265625 287.421875 325.269531 288.375 324.316406 C 289.328125 323.363281 290.328125 322.460938 291.371094 321.605469 C 292.414062 320.75 293.496094 319.949219 294.617188 319.199219 C 295.738281 318.449219 296.894531 317.757812 298.085938 317.121094 C 299.273438 316.488281 300.492188 315.910156 301.738281 315.394531 C 302.984375 314.878906 304.253906 314.425781 305.542969 314.035156 C 306.835938 313.644531 308.144531 313.316406 309.464844 313.054688 C 310.789062 312.792969 312.121094 312.59375 313.464844 312.460938 C 314.808594 312.328125 316.152344 312.261719 317.503906 312.261719 Z M 317.503906 354.253906 " fill-opacity="0.2" fill-rule="nonzero"/><g clip-path="url(#clip-2)"><path fill="rgb(89.7995%, 89.7995%, 89.7995%)" d="M 134.839844 236.328125 L 111.976562 412.023438 L 111.832031 413.140625 L 110.878906 413.140625 L 111.027344 412.023438 L 133.910156 236.207031 Z M 134.839844 236.328125 " fill-opacity="1" fill-rule="nonzero"/></g><g clip-path="url(#clip-3)"><path fill="rgb(89.7995%, 89.7995%, 89.7995%)" d="M 87.242188 236.550781 L 62.027344 412.039062 L 61.867188 413.160156 L 60.917969 413.160156 L 61.078125 412.039062 L 86.308594 236.417969 Z M 87.242188 236.550781 " fill-opacity="1" fill-rule="nonzero"/></g><g clip-path="url(#clip-4)"><path fill="rgb(24.708557%, 23.919678%, 33.729553%)" d="M 170.390625 413.117188 L 169.410156 413.121094 L 169.109375 412.003906 L 120.335938 231.027344 L 121.246094 230.785156 L 170.085938 412.003906 Z M 170.390625 413.117188 " fill-opacity="1" fill-rule="nonzero"/></g><path fill="rgb(24.708557%, 23.919678%, 33.729553%)" d="M 167.421875 231.035156 L 168.328125 230.777344 L 219.722656 411.894531 L 218.816406 412.152344 Z M 167.421875 231.035156 " fill-opacity="1" fill-rule="nonzero"/><path fill="rgb(24.708557%, 23.919678%, 33.729553%)" d="M 163.308594 388.554688 L 209.914062 378.921875 L 210.105469 379.84375 L 163.5 389.476562 Z M 163.308594 388.554688 " fill-opacity="1" fill-rule="nonzero"/><path fill="rgb(24.708557%, 23.919678%, 33.729553%)" d="M 155.230469 360.300781 L 201.832031 350.671875 L 202.023438 351.59375 L 155.417969 361.222656 Z M 155.230469 360.300781 " fill-opacity="1" fill-rule="nonzero"/><path fill="rgb(24.708557%, 23.919678%, 33.729553%)" d="M 147.476562 331.363281 L 193.757812 322.417969 L 193.9375 323.339844 L 147.65625 332.285156 Z M 147.476562 331.363281 " fill-opacity="1" fill-rule="nonzero"/><path fill="rgb(24.708557%, 23.919678%, 33.729553%)" d="M 140.40625 303.105469 L 185.675781 294.167969 L 185.859375 295.09375 L 140.585938 304.027344 Z M 140.40625 303.105469 " fill-opacity="1" fill-rule="nonzero"/><path fill="rgb(24.708557%, 23.919678%, 33.729553%)" d="M 86.445312 236.515625 C 86.355469 235.945312 86.296875 235.371094 86.265625 234.796875 C 86.234375 234.21875 86.230469 233.640625 86.257812 233.066406 C 86.28125 232.488281 86.335938 231.914062 86.417969 231.34375 C 86.5 230.773438 86.609375 230.207031 86.746094 229.644531 C 86.886719 229.082031 87.050781 228.53125 87.242188 227.988281 C 87.433594 227.441406 87.652344 226.910156 87.898438 226.386719 C 88.140625 225.863281 88.410156 225.351562 88.707031 224.855469 C 89 224.359375 89.320312 223.878906 89.660156 223.414062 C 90.003906 222.945312 90.367188 222.5 90.753906 222.070312 C 91.140625 221.640625 91.546875 221.230469 91.972656 220.839844 C 92.398438 220.449219 92.84375 220.082031 93.304688 219.738281 C 93.769531 219.390625 94.246094 219.066406 94.742188 218.769531 C 95.234375 218.46875 95.742188 218.195312 96.265625 217.945312 C 96.785156 217.695312 97.316406 217.472656 97.859375 217.277344 C 98.402344 217.078125 98.957031 216.910156 99.515625 216.765625 C 100.074219 216.625 100.640625 216.507812 101.210938 216.421875 C 101.785156 216.332031 102.359375 216.273438 102.933594 216.242188 C 103.511719 216.210938 104.089844 216.210938 104.667969 216.234375 C 105.242188 216.261719 105.820312 216.316406 106.390625 216.398438 C 106.964844 216.480469 107.53125 216.589844 108.089844 216.726562 C 108.652344 216.863281 109.207031 217.03125 109.75 217.222656 C 110.296875 217.414062 110.828125 217.632812 111.351562 217.875 C 111.875 218.121094 112.386719 218.390625 112.882812 218.683594 C 113.382812 218.980469 113.863281 219.296875 114.328125 219.640625 C 114.792969 219.980469 115.242188 220.347656 115.671875 220.730469 C 116.101562 221.117188 116.511719 221.523438 116.902344 221.949219 C 117.292969 222.375 117.660156 222.820312 118.007812 223.28125 C 118.351562 223.746094 118.675781 224.222656 118.972656 224.714844 C 119.273438 225.210938 119.546875 225.71875 119.796875 226.238281 C 120.046875 226.761719 120.269531 227.292969 120.464844 227.835938 C 120.664062 228.378906 120.832031 228.929688 120.976562 229.488281 C 121.117188 230.046875 121.234375 230.613281 121.320312 231.183594 L 120.390625 231.324219 C 120.308594 230.785156 120.199219 230.25 120.066406 229.71875 C 119.929688 229.191406 119.769531 228.667969 119.582031 228.152344 C 119.398438 227.640625 119.183594 227.136719 118.949219 226.644531 C 118.714844 226.148438 118.453125 225.667969 118.171875 225.203125 C 117.886719 224.734375 117.582031 224.28125 117.253906 223.84375 C 116.925781 223.40625 116.578125 222.984375 116.210938 222.582031 C 115.839844 222.175781 115.453125 221.792969 115.046875 221.425781 C 114.636719 221.0625 114.214844 220.714844 113.773438 220.394531 C 113.332031 220.070312 112.875 219.765625 112.40625 219.488281 C 111.933594 219.210938 111.453125 218.953125 110.957031 218.722656 C 110.460938 218.492188 109.953125 218.285156 109.4375 218.101562 C 108.921875 217.917969 108.398438 217.761719 107.867188 217.632812 C 107.335938 217.503906 106.800781 217.398438 106.257812 217.320312 C 105.714844 217.242188 105.171875 217.191406 104.625 217.167969 C 104.078125 217.144531 103.53125 217.144531 102.984375 217.175781 C 102.4375 217.203125 101.894531 217.261719 101.355469 217.34375 C 100.8125 217.425781 100.277344 217.535156 99.746094 217.671875 C 99.214844 217.804688 98.695312 217.964844 98.179688 218.152344 C 97.664062 218.339844 97.160156 218.550781 96.667969 218.785156 C 96.175781 219.023438 95.691406 219.28125 95.226562 219.566406 C 94.757812 219.847656 94.304688 220.15625 93.867188 220.484375 C 93.429688 220.8125 93.007812 221.160156 92.605469 221.527344 C 92.199219 221.898438 91.816406 222.285156 91.449219 222.691406 C 91.085938 223.101562 90.738281 223.523438 90.417969 223.964844 C 90.09375 224.40625 89.792969 224.859375 89.511719 225.332031 C 89.234375 225.800781 88.976562 226.285156 88.746094 226.78125 C 88.515625 227.273438 88.308594 227.78125 88.128906 228.296875 C 87.945312 228.8125 87.789062 229.335938 87.660156 229.867188 C 87.53125 230.398438 87.425781 230.933594 87.347656 231.476562 C 87.269531 232.015625 87.21875 232.558594 87.195312 233.105469 C 87.171875 233.652344 87.175781 234.199219 87.207031 234.746094 C 87.234375 235.289062 87.292969 235.832031 87.375 236.375 Z M 86.445312 236.515625 " fill-opacity="1" fill-rule="nonzero"/><path fill="rgb(24.708557%, 23.919678%, 33.729553%)" d="M 133.59375 236.726562 C 133.5 236.15625 133.433594 235.585938 133.394531 235.007812 C 133.355469 234.433594 133.34375 233.855469 133.363281 233.28125 C 133.378906 232.703125 133.425781 232.128906 133.5 231.554688 C 133.578125 230.984375 133.679688 230.417969 133.808594 229.855469 C 133.941406 229.292969 134.097656 228.738281 134.28125 228.191406 C 134.46875 227.644531 134.679688 227.105469 134.917969 226.582031 C 135.152344 226.054688 135.417969 225.542969 135.707031 225.042969 C 135.992188 224.542969 136.304688 224.054688 136.640625 223.585938 C 136.976562 223.117188 137.335938 222.664062 137.714844 222.230469 C 138.097656 221.796875 138.496094 221.382812 138.917969 220.984375 C 139.339844 220.589844 139.777344 220.21875 140.238281 219.867188 C 140.695312 219.511719 141.167969 219.183594 141.660156 218.878906 C 142.148438 218.574219 142.652344 218.292969 143.171875 218.035156 C 143.6875 217.78125 144.21875 217.550781 144.757812 217.347656 C 145.296875 217.144531 145.847656 216.964844 146.40625 216.816406 C 146.964844 216.664062 147.527344 216.542969 148.097656 216.449219 C 148.667969 216.351562 149.242188 216.285156 149.816406 216.246094 C 150.394531 216.210938 150.96875 216.199219 151.546875 216.21875 C 152.125 216.234375 152.699219 216.28125 153.273438 216.355469 C 153.847656 216.429688 154.414062 216.535156 154.976562 216.664062 C 155.539062 216.792969 156.09375 216.953125 156.644531 217.136719 C 157.191406 217.320312 157.726562 217.53125 158.253906 217.769531 C 158.78125 218.007812 159.292969 218.269531 159.792969 218.558594 C 160.296875 218.84375 160.78125 219.15625 161.25 219.492188 C 161.722656 219.828125 162.171875 220.1875 162.609375 220.566406 C 163.042969 220.945312 163.457031 221.347656 163.855469 221.765625 C 164.25 222.1875 164.625 222.625 164.976562 223.085938 C 165.328125 223.542969 165.65625 224.015625 165.964844 224.503906 C 166.269531 224.996094 166.550781 225.5 166.804688 226.015625 C 167.0625 226.53125 167.292969 227.0625 167.496094 227.601562 C 167.703125 228.140625 167.878906 228.691406 168.027344 229.246094 C 168.179688 229.804688 168.300781 230.367188 168.398438 230.9375 L 167.46875 231.089844 C 167.378906 230.554688 167.261719 230.019531 167.121094 229.492188 C 166.976562 228.964844 166.808594 228.445312 166.617188 227.933594 C 166.421875 227.425781 166.203125 226.925781 165.960938 226.433594 C 165.71875 225.945312 165.453125 225.46875 165.164062 225.007812 C 164.871094 224.542969 164.5625 224.09375 164.226562 223.664062 C 163.894531 223.230469 163.539062 222.8125 163.164062 222.417969 C 162.792969 222.019531 162.398438 221.640625 161.984375 221.28125 C 161.574219 220.921875 161.144531 220.582031 160.703125 220.265625 C 160.257812 219.949219 159.796875 219.652344 159.324219 219.378906 C 158.847656 219.109375 158.363281 218.859375 157.863281 218.636719 C 157.367188 218.410156 156.859375 218.210938 156.339844 218.035156 C 155.820312 217.859375 155.296875 217.710938 154.765625 217.589844 C 154.230469 217.464844 153.695312 217.367188 153.152344 217.296875 C 152.609375 217.226562 152.066406 217.183594 151.519531 217.167969 C 150.972656 217.148438 150.425781 217.160156 149.882812 217.195312 C 149.335938 217.234375 148.792969 217.296875 148.253906 217.386719 C 147.714844 217.476562 147.179688 217.589844 146.652344 217.734375 C 146.125 217.875 145.605469 218.042969 145.09375 218.234375 C 144.582031 218.429688 144.082031 218.648438 143.589844 218.890625 C 143.101562 219.132812 142.625 219.398438 142.160156 219.6875 C 141.695312 219.976562 141.25 220.285156 140.816406 220.617188 C 140.382812 220.953125 139.964844 221.304688 139.566406 221.679688 C 139.167969 222.050781 138.789062 222.445312 138.429688 222.855469 C 138.070312 223.265625 137.730469 223.695312 137.410156 224.140625 C 137.09375 224.582031 136.796875 225.042969 136.527344 225.515625 C 136.253906 225.988281 136.003906 226.472656 135.777344 226.972656 C 135.554688 227.46875 135.351562 227.976562 135.179688 228.496094 C 135.003906 229.011719 134.851562 229.535156 134.730469 230.070312 C 134.605469 230.601562 134.507812 231.136719 134.4375 231.679688 C 134.367188 232.222656 134.324219 232.765625 134.304688 233.308594 C 134.289062 233.855469 134.296875 234.402344 134.332031 234.945312 C 134.371094 235.492188 134.433594 236.035156 134.523438 236.574219 Z M 133.59375 236.726562 " fill-opacity="1" fill-rule="nonzero"/><path fill="rgb(100%, 71.369934%, 71.369934%)" d="M 182.238281 275.105469 L 173.191406 297.089844 L 202.667969 296.878906 L 199.667969 275.054688 Z M 182.238281 275.105469 " fill-opacity="1" fill-rule="nonzero"/><path fill="rgb(100%, 71.369934%, 71.369934%)" d="M 189.433594 376.035156 L 193.808594 376.671875 L 198.347656 360.128906 L 191.894531 359.191406 Z M 189.433594 376.035156 " fill-opacity="1" fill-rule="nonzero"/><path fill="rgb(18.429565%, 18.03894%, 25.489807%)" d="M 188.664062 373.722656 L 195.636719 374.320312 L 195.203125 377.277344 L 201.113281 382.769531 C 201.414062 383.046875 201.601562 383.386719 201.675781 383.789062 C 201.753906 384.1875 201.703125 384.574219 201.527344 384.941406 C 201.347656 385.3125 201.082031 385.589844 200.71875 385.78125 C 200.359375 385.976562 199.976562 386.042969 199.570312 385.984375 L 191.34375 384.785156 L 190.351562 381.652344 L 189.371094 384.496094 L 186.269531 384.042969 Z M 188.664062 373.722656 " fill-opacity="1" fill-rule="nonzero"/><path fill="rgb(100%, 71.369934%, 71.369934%)" d="M 138.90625 363.816406 L 142.394531 366.527344 L 154.515625 354.375 L 149.367188 350.378906 Z M 138.90625 363.816406 " fill-opacity="1" fill-rule="nonzero"/><path fill="rgb(18.429565%, 18.03894%, 25.489807%)" d="M 139.378906 361.425781 L 145.148438 365.382812 L 143.3125 367.742188 L 145.738281 375.429688 C 145.863281 375.820312 145.859375 376.207031 145.726562 376.59375 C 145.59375 376.980469 145.359375 377.292969 145.023438 377.523438 C 144.6875 377.757812 144.316406 377.867188 143.90625 377.859375 C 143.5 377.847656 143.132812 377.714844 142.808594 377.464844 L 136.246094 372.367188 L 136.929688 369.152344 L 134.671875 371.144531 L 132.199219 369.222656 Z M 139.378906 361.425781 " fill-opacity="1" fill-rule="nonzero"/><path fill="rgb(18.429565%, 18.03894%, 25.489807%)" d="M 174.855469 291.875 L 171.949219 295.714844 L 164.222656 329.300781 L 146.660156 352.996094 L 152.566406 358.660156 L 174.964844 336.949219 L 185.960938 313.753906 L 191.523438 335.179688 L 190.109375 363.863281 L 199.523438 363.394531 C 202.078125 330.105469 206.066406 295.851562 201.367188 286.234375 C 199.816406 287.582031 198.148438 288.761719 196.355469 289.773438 C 194.566406 290.785156 192.691406 291.601562 190.734375 292.230469 C 188.777344 292.859375 186.777344 293.28125 184.730469 293.5 C 182.6875 293.722656 180.640625 293.734375 178.59375 293.535156 Z M 174.855469 291.875 " fill-opacity="1" fill-rule="nonzero"/><path fill="rgb(4.708862%, 45.489502%, 56.079102%)" d="M 190.394531 239.550781 L 197.820312 247.664062 C 199.492188 249.488281 200.476562 251.628906 200.777344 254.082031 C 200.910156 255.175781 200.886719 256.265625 200.710938 257.351562 L 199.109375 269.070312 L 201.933594 286.941406 C 201.933594 286.941406 197.910156 289.394531 190.164062 294.464844 C 187.003906 296.535156 172.261719 296.5 172.277344 295.875 C 172.363281 292.976562 174.957031 285.167969 175.574219 275.65625 C 176.335938 263.910156 175.335938 249.898438 177.925781 243.207031 C 181.089844 235.042969 190.394531 239.550781 190.394531 239.550781 Z M 190.394531 239.550781 " fill-opacity="1" fill-rule="nonzero"/><path fill="rgb(100%, 71.369934%, 71.369934%)" d="M 164.90625 291.539062 C 165.066406 291.304688 165.203125 291.054688 165.308594 290.789062 C 165.417969 290.523438 165.492188 290.25 165.539062 289.96875 C 165.585938 289.6875 165.605469 289.402344 165.589844 289.117188 C 165.574219 288.832031 165.527344 288.554688 165.449219 288.277344 C 165.375 288.003906 165.269531 287.738281 165.132812 287.488281 C 165 287.234375 164.839844 287 164.652344 286.78125 C 164.46875 286.566406 164.257812 286.371094 164.03125 286.199219 C 163.800781 286.027344 163.558594 285.882812 163.296875 285.765625 L 163.585938 276.835938 L 158.199219 275.339844 L 157.964844 287.953125 C 157.796875 288.402344 157.714844 288.867188 157.714844 289.347656 C 157.714844 289.832031 157.804688 290.296875 157.976562 290.746094 C 158.148438 291.195312 158.394531 291.597656 158.71875 291.957031 C 159.039062 292.3125 159.414062 292.605469 159.839844 292.824219 C 160.269531 293.046875 160.722656 293.183594 161.199219 293.238281 C 161.679688 293.292969 162.152344 293.261719 162.617188 293.144531 C 163.085938 293.027344 163.515625 292.828125 163.910156 292.550781 C 164.304688 292.277344 164.636719 291.9375 164.90625 291.539062 Z M 164.90625 291.539062 " fill-opacity="1" fill-rule="nonzero"/><path fill="rgb(4.708862%, 45.489502%, 56.079102%)" d="M 157.71875 255.5 C 158.054688 254.621094 158.660156 254.003906 159.539062 253.65625 C 162.40625 252.453125 174.804688 242.332031 175.261719 242.523438 L 179.195312 240.582031 C 179.339844 240.585938 183.21875 240.675781 185.121094 242.832031 C 185.519531 243.289062 185.804688 243.8125 185.976562 244.398438 C 186.148438 244.984375 186.1875 245.578125 186.097656 246.179688 C 185.542969 251.3125 167.964844 262.839844 166.101562 262.761719 L 164.128906 277.328125 L 164.898438 282.894531 L 157.710938 283.101562 L 155.496094 274.90625 C 155.175781 274.308594 154.777344 262.984375 157.71875 255.5 Z M 157.71875 255.5 " fill-opacity="1" fill-rule="nonzero"/><path fill="rgb(4.708862%, 45.489502%, 56.079102%)" d="M 181.535156 239.621094 C 181.929688 239.679688 182.316406 239.785156 182.695312 239.933594 C 183.070312 240.082031 183.429688 240.273438 183.769531 240.507812 C 184.113281 240.742188 184.429688 241.015625 184.71875 241.328125 C 185.011719 241.640625 185.273438 241.984375 185.507812 242.359375 C 185.738281 242.734375 185.9375 243.136719 186.101562 243.5625 C 186.265625 243.988281 186.390625 244.429688 186.476562 244.890625 C 186.566406 245.347656 186.613281 245.816406 186.625 246.292969 C 186.632812 246.769531 186.605469 247.242188 186.535156 247.71875 C 186.464844 248.191406 186.359375 248.652344 186.214844 249.105469 C 186.070312 249.558594 185.886719 249.996094 185.671875 250.410156 C 185.457031 250.824219 185.207031 251.214844 184.929688 251.574219 C 184.652344 251.9375 184.347656 252.265625 184.015625 252.558594 C 183.6875 252.851562 183.335938 253.105469 182.96875 253.320312 C 182.601562 253.535156 182.21875 253.707031 181.824219 253.835938 C 181.429688 253.964844 181.03125 254.046875 180.628906 254.082031 C 180.226562 254.117188 179.824219 254.105469 179.425781 254.046875 C 179.03125 253.988281 178.640625 253.886719 178.265625 253.738281 C 177.890625 253.585938 177.53125 253.394531 177.191406 253.160156 C 176.847656 252.925781 176.53125 252.652344 176.242188 252.339844 C 175.949219 252.03125 175.6875 251.6875 175.453125 251.3125 C 175.222656 250.933594 175.023438 250.535156 174.859375 250.109375 C 174.695312 249.683594 174.570312 249.238281 174.484375 248.78125 C 174.394531 248.320312 174.34375 247.851562 174.335938 247.375 C 174.328125 246.902344 174.355469 246.425781 174.425781 245.953125 C 174.496094 245.480469 174.601562 245.015625 174.746094 244.5625 C 174.890625 244.109375 175.074219 243.675781 175.289062 243.257812 C 175.503906 242.84375 175.753906 242.457031 176.03125 242.09375 C 176.308594 241.730469 176.613281 241.40625 176.945312 241.109375 C 177.273438 240.816406 177.621094 240.5625 177.992188 240.347656 C 178.359375 240.132812 178.742188 239.960938 179.136719 239.832031 C 179.53125 239.707031 179.929688 239.625 180.332031 239.589844 C 180.734375 239.554688 181.136719 239.5625 181.535156 239.621094 Z M 181.535156 239.621094 " fill-opacity="1" fill-rule="nonzero"/><path fill="rgb(24.708557%, 23.919678%, 33.729553%)" d="M 132.503906 273.761719 L 132.324219 272.839844 L 176.042969 262.957031 L 176.042969 263.898438 Z M 132.503906 273.761719 " fill-opacity="1" fill-rule="nonzero"/><path fill="rgb(90.19928%, 90.19928%, 90.19928%)" d="M 309.289062 207.304688 L 326.054688 207.304688 C 326.484375 207.304688 326.910156 207.347656 327.332031 207.429688 C 327.753906 207.511719 328.164062 207.636719 328.5625 207.800781 C 328.960938 207.964844 329.335938 208.167969 329.695312 208.40625 C 330.050781 208.644531 330.382812 208.917969 330.6875 209.21875 C 330.992188 209.523438 331.261719 209.855469 331.5 210.210938 C 331.738281 210.570312 331.941406 210.945312 332.105469 211.34375 C 332.269531 211.738281 332.394531 212.148438 332.480469 212.570312 C 332.5625 212.992188 332.605469 213.417969 332.605469 213.847656 C 332.605469 214.277344 332.5625 214.703125 332.480469 215.125 C 332.394531 215.542969 332.269531 215.953125 332.105469 216.351562 C 331.941406 216.746094 331.738281 217.125 331.5 217.480469 C 331.261719 217.839844 330.992188 218.167969 330.6875 218.472656 C 330.382812 218.777344 330.050781 219.046875 329.695312 219.285156 C 329.335938 219.523438 328.960938 219.726562 328.5625 219.890625 C 328.164062 220.054688 327.753906 220.179688 327.332031 220.261719 C 326.910156 220.347656 326.484375 220.390625 326.054688 220.390625 L 309.289062 220.390625 C 308.859375 220.390625 308.433594 220.347656 308.011719 220.261719 C 307.589844 220.179688 307.179688 220.054688 306.78125 219.890625 C 306.382812 219.726562 306.007812 219.523438 305.648438 219.285156 C 305.292969 219.046875 304.960938 218.777344 304.65625 218.472656 C 304.351562 218.167969 304.082031 217.839844 303.84375 217.480469 C 303.601562 217.125 303.402344 216.746094 303.238281 216.351562 C 303.070312 215.953125 302.949219 215.542969 302.863281 215.125 C 302.78125 214.703125 302.738281 214.277344 302.738281 213.847656 C 302.738281 213.417969 302.78125 212.992188 302.863281 212.570312 C 302.949219 212.148438 303.074219 211.738281 303.238281 211.34375 C 303.402344 210.945312 303.601562 210.570312 303.84375 210.210938 C 304.082031 209.855469 304.351562 209.523438 304.65625 209.21875 C 304.960938 208.917969 305.292969 208.644531 305.648438 208.40625 C 306.007812 208.167969 306.382812 207.964844 306.78125 207.800781 C 307.179688 207.636719 307.589844 207.511719 308.011719 207.429688 C 308.433594 207.347656 308.859375 207.304688 309.289062 207.304688 Z M 309.289062 207.304688 " fill-opacity="1" fill-rule="nonzero"/><path fill="rgb(90.19928%, 90.19928%, 90.19928%)" d="M 278.179688 233.472656 L 357.164062 233.472656 C 357.59375 233.472656 358.019531 233.515625 358.441406 233.601562 C 358.863281 233.683594 359.273438 233.808594 359.671875 233.972656 C 360.066406 234.136719 360.445312 234.339844 360.804688 234.578125 C 361.160156 234.816406 361.492188 235.085938 361.796875 235.390625 C 362.101562 235.695312 362.371094 236.023438 362.609375 236.382812 C 362.847656 236.738281 363.050781 237.117188 363.214844 237.511719 C 363.378906 237.910156 363.503906 238.320312 363.589844 238.742188 C 363.671875 239.160156 363.714844 239.585938 363.714844 240.015625 C 363.714844 240.445312 363.671875 240.871094 363.589844 241.292969 C 363.503906 241.714844 363.378906 242.125 363.214844 242.519531 C 363.050781 242.917969 362.847656 243.292969 362.609375 243.652344 C 362.371094 244.007812 362.101562 244.339844 361.796875 244.644531 C 361.492188 244.945312 361.160156 245.21875 360.804688 245.457031 C 360.445312 245.695312 360.066406 245.898438 359.671875 246.0625 C 359.273438 246.226562 358.863281 246.351562 358.441406 246.433594 C 358.019531 246.519531 357.59375 246.558594 357.164062 246.558594 L 278.179688 246.558594 C 277.75 246.558594 277.324219 246.519531 276.902344 246.433594 C 276.480469 246.351562 276.070312 246.226562 275.671875 246.0625 C 275.273438 245.898438 274.898438 245.695312 274.539062 245.457031 C 274.183594 245.21875 273.851562 244.945312 273.546875 244.644531 C 273.242188 244.339844 272.972656 244.007812 272.734375 243.652344 C 272.492188 243.292969 272.292969 242.917969 272.128906 242.519531 C 271.964844 242.125 271.839844 241.714844 271.753906 241.292969 C 271.671875 240.871094 271.628906 240.445312 271.628906 240.015625 C 271.628906 239.585938 271.671875 239.160156 271.753906 238.742188 C 271.839844 238.320312 271.964844 237.910156 272.128906 237.511719 C 272.292969 237.117188 272.492188 236.738281 272.734375 236.382812 C 272.972656 236.023438 273.242188 235.695312 273.546875 235.390625 C 273.851562 235.085938 274.183594 234.816406 274.539062 234.578125 C 274.898438 234.339844 275.273438 234.136719 275.671875 233.972656 C 276.070312 233.808594 276.480469 233.683594 276.902344 233.601562 C 277.324219 233.515625 277.75 233.472656 278.179688 233.472656 Z M 278.179688 233.472656 " fill-opacity="1" fill-rule="nonzero"/><path fill="rgb(4.708862%, 45.489502%, 56.079102%)" d="M 244.285156 253.0625 L 323.273438 253.0625 C 323.703125 253.0625 324.128906 253.101562 324.550781 253.1875 C 324.972656 253.269531 325.382812 253.394531 325.777344 253.558594 C 326.175781 253.722656 326.554688 253.925781 326.910156 254.164062 C 327.269531 254.402344 327.597656 254.671875 327.902344 254.976562 C 328.207031 255.28125 328.480469 255.613281 328.71875 255.96875 C 328.957031 256.324219 329.15625 256.703125 329.324219 257.101562 C 329.488281 257.496094 329.613281 257.90625 329.695312 258.328125 C 329.78125 258.75 329.820312 259.175781 329.820312 259.605469 C 329.820312 260.035156 329.78125 260.457031 329.695312 260.878906 C 329.613281 261.300781 329.488281 261.710938 329.324219 262.109375 C 329.15625 262.503906 328.957031 262.882812 328.71875 263.238281 C 328.480469 263.597656 328.207031 263.925781 327.902344 264.230469 C 327.597656 264.535156 327.269531 264.804688 326.910156 265.042969 C 326.554688 265.28125 326.175781 265.484375 325.777344 265.648438 C 325.382812 265.8125 324.972656 265.9375 324.550781 266.019531 C 324.128906 266.105469 323.703125 266.144531 323.273438 266.144531 L 244.285156 266.144531 C 243.855469 266.144531 243.429688 266.105469 243.007812 266.019531 C 242.585938 265.9375 242.175781 265.8125 241.78125 265.648438 C 241.382812 265.484375 241.003906 265.28125 240.648438 265.042969 C 240.289062 264.804688 239.960938 264.535156 239.65625 264.230469 C 239.351562 263.925781 239.078125 263.597656 238.839844 263.238281 C 238.601562 262.882812 238.398438 262.503906 238.234375 262.109375 C 238.070312 261.710938 237.945312 261.300781 237.863281 260.878906 C 237.777344 260.457031 237.738281 260.035156 237.738281 259.605469 C 237.738281 259.175781 237.777344 258.75 237.863281 258.328125 C 237.945312 257.90625 238.070312 257.496094 238.234375 257.101562 C 238.398438 256.703125 238.601562 256.324219 238.839844 255.96875 C 239.078125 255.613281 239.351562 255.28125 239.65625 254.976562 C 239.960938 254.671875 240.289062 254.402344 240.648438 254.164062 C 241.003906 253.925781 241.382812 253.722656 241.78125 253.558594 C 242.175781 253.394531 242.585938 253.269531 243.007812 253.1875 C 243.429688 253.101562 243.855469 253.0625 244.285156 253.0625 Z M 244.285156 253.0625 " fill-opacity="1" fill-rule="nonzero"/><g clip-path="url(#clip-5)"><path fill="rgb(79.219055%, 79.219055%, 79.219055%)" d="M 427.386719 412.460938 C 427.390625 412.613281 427.335938 412.746094 427.226562 412.855469 C 427.117188 412.964844 426.984375 413.019531 426.828125 413.019531 L 147.832031 413.117188 L 146.851562 413.121094 L 89.273438 413.140625 L 88.320312 413.140625 L 39.308594 413.160156 L 38.359375 413.160156 L 23.058594 413.164062 C 22.90625 413.164062 22.773438 413.109375 22.664062 413 C 22.554688 412.890625 22.5 412.757812 22.5 412.605469 C 22.5 412.449219 22.554688 412.320312 22.664062 412.210938 C 22.773438 412.101562 22.90625 412.046875 23.058594 412.046875 L 38.519531 412.039062 L 39.46875 412.039062 L 88.46875 412.023438 L 89.417969 412.023438 L 146.550781 412.003906 L 147.527344 412.003906 L 196.207031 411.984375 L 196.847656 411.984375 L 426.828125 411.898438 C 426.984375 411.898438 427.117188 411.953125 427.226562 412.0625 C 427.335938 412.171875 427.390625 412.304688 427.386719 412.460938 Z M 427.386719 412.460938 " fill-opacity="1" fill-rule="nonzero"/></g><path fill="rgb(100%, 71.369934%, 71.369934%)" d="M 198.253906 231.445312 C 198.019531 231.753906 197.773438 232.050781 197.507812 232.328125 C 197.242188 232.609375 196.960938 232.875 196.664062 233.121094 C 196.371094 233.371094 196.0625 233.601562 195.742188 233.816406 C 195.417969 234.03125 195.085938 234.226562 194.742188 234.402344 C 194.402344 234.578125 194.046875 234.734375 193.6875 234.871094 C 193.328125 235.007812 192.957031 235.125 192.585938 235.222656 C 192.210938 235.316406 191.832031 235.390625 191.449219 235.445312 C 191.066406 235.496094 190.683594 235.527344 190.296875 235.539062 C 189.910156 235.546875 189.527344 235.535156 189.140625 235.503906 C 188.757812 235.46875 188.375 235.414062 187.996094 235.335938 C 187.617188 235.261719 187.246094 235.164062 186.878906 235.042969 C 186.511719 234.925781 186.152344 234.789062 185.800781 234.628906 C 185.449219 234.46875 185.105469 234.289062 184.773438 234.09375 C 184.441406 233.894531 184.121094 233.679688 183.816406 233.445312 C 183.507812 233.214844 183.214844 232.964844 182.933594 232.699219 C 182.65625 232.429688 182.394531 232.148438 182.144531 231.855469 C 181.898438 231.558594 181.667969 231.25 181.453125 230.925781 C 181.242188 230.605469 181.046875 230.273438 180.875 229.929688 C 180.699219 229.585938 180.542969 229.230469 180.40625 228.871094 C 180.273438 228.507812 180.15625 228.140625 180.0625 227.769531 C 179.96875 227.394531 179.898438 227.015625 179.847656 226.632812 C 179.792969 226.25 179.765625 225.867188 179.757812 225.480469 C 179.75 225.09375 179.761719 224.710938 179.796875 224.328125 C 179.832031 223.941406 179.890625 223.5625 179.96875 223.183594 C 180.046875 222.804688 180.148438 222.433594 180.265625 222.066406 C 180.386719 221.699219 180.527344 221.34375 180.6875 220.992188 C 180.847656 220.640625 181.03125 220.300781 181.230469 219.96875 C 181.429688 219.640625 181.644531 219.320312 181.878906 219.015625 C 182.113281 218.710938 182.367188 218.417969 182.632812 218.140625 C 182.902344 217.863281 183.183594 217.601562 183.484375 217.355469 C 183.78125 217.109375 184.089844 216.878906 184.414062 216.667969 C 184.738281 216.457031 185.070312 216.265625 185.417969 216.09375 C 185.761719 215.917969 186.113281 215.765625 186.476562 215.632812 C 186.839844 215.5 187.207031 215.386719 187.582031 215.292969 C 187.957031 215.203125 188.335938 215.128906 188.71875 215.082031 C 189.101562 215.03125 189.488281 215.003906 189.875 214.996094 C 190.257812 214.992188 190.644531 215.007812 191.027344 215.042969 C 191.414062 215.082031 191.792969 215.140625 192.171875 215.21875 C 192.550781 215.300781 192.921875 215.402344 193.289062 215.523438 C 193.652344 215.644531 194.011719 215.789062 194.363281 215.949219 C 194.714844 216.113281 195.054688 216.292969 195.382812 216.492188 C 195.710938 216.695312 196.03125 216.914062 196.335938 217.148438 C 196.640625 217.386719 196.933594 217.636719 197.207031 217.90625 C 197.484375 218.175781 197.746094 218.460938 197.992188 218.757812 C 198.234375 219.054688 198.460938 219.367188 198.671875 219.691406 C 198.882812 220.015625 199.074219 220.347656 199.246094 220.695312 C 199.417969 221.039062 199.570312 221.394531 199.699219 221.757812 C 199.832031 222.121094 199.945312 222.488281 200.035156 222.863281 C 200.0625 222.984375 200.089844 223.109375 200.113281 223.234375 C 200.40625 224.675781 200.390625 226.109375 200.066406 227.539062 C 199.742188 228.972656 199.136719 230.273438 198.253906 231.445312 Z M 198.253906 231.445312 " fill-opacity="1" fill-rule="nonzero"/><path fill="rgb(18.429565%, 18.03894%, 25.489807%)" d="M 200.929688 223.355469 C 200.667969 222.066406 200.765625 222.730469 200.503906 221.449219 C 200.558594 222.085938 200.429688 222.679688 200.113281 223.234375 L 187.996094 221.46875 L 189.023438 214.433594 C 192.78125 213.546875 196.425781 212.855469 198.140625 215.761719 C 198.601562 215.832031 199.054688 215.941406 199.496094 216.097656 C 199.933594 216.253906 200.355469 216.453125 200.757812 216.691406 C 201.160156 216.929688 201.535156 217.207031 201.878906 217.519531 C 202.226562 217.832031 202.539062 218.175781 202.820312 218.550781 C 203.097656 218.921875 203.339844 219.320312 203.539062 219.742188 C 203.742188 220.164062 203.898438 220.601562 204.011719 221.054688 C 204.128906 221.507812 204.199219 221.964844 204.222656 222.433594 C 204.246094 222.898438 204.222656 223.363281 204.15625 223.824219 Z M 200.929688 223.355469 " fill-opacity="1" fill-rule="nonzero"/><path fill="rgb(18.429565%, 18.03894%, 25.489807%)" d="M 193.777344 242.285156 C 193.789062 242.15625 193.792969 242.015625 193.792969 241.882812 C 193.769531 240.902344 193.644531 239.933594 193.414062 238.976562 C 193.207031 237.945312 193 236.90625 192.789062 235.875 C 192.988281 237.773438 192.59375 239.539062 191.609375 241.175781 C 189.796875 239.285156 190.996094 236.550781 188.320312 236.164062 C 181.894531 235.226562 176.664062 228.339844 177.601562 221.914062 C 178.539062 215.492188 181.996094 211.089844 188.425781 212.027344 C 194.859375 212.964844 199.644531 216.667969 198.832031 223.105469 C 190.644531 223.8125 195.367188 241.851562 193.777344 242.285156 Z M 193.777344 242.285156 " fill-opacity="1" fill-rule="nonzero"/><path fill="rgb(18.429565%, 18.03894%, 25.489807%)" d="M 183.929688 213.601562 C 183.929688 213.882812 183.902344 214.160156 183.847656 214.4375 C 183.792969 214.714844 183.710938 214.980469 183.601562 215.242188 C 183.492188 215.5 183.363281 215.75 183.203125 215.984375 C 183.046875 216.21875 182.871094 216.433594 182.671875 216.632812 C 182.472656 216.832031 182.253906 217.011719 182.019531 217.167969 C 181.785156 217.324219 181.539062 217.457031 181.277344 217.5625 C 181.019531 217.671875 180.75 217.753906 180.472656 217.808594 C 180.195312 217.863281 179.917969 217.890625 179.636719 217.890625 C 179.351562 217.890625 179.074219 217.863281 178.796875 217.808594 C 178.519531 217.753906 178.253906 217.671875 177.992188 217.5625 C 177.730469 217.457031 177.484375 217.324219 177.25 217.167969 C 177.015625 217.011719 176.796875 216.832031 176.597656 216.632812 C 176.398438 216.433594 176.222656 216.21875 176.066406 215.984375 C 175.910156 215.75 175.777344 215.5 175.667969 215.242188 C 175.558594 214.980469 175.480469 214.714844 175.425781 214.4375 C 175.367188 214.160156 175.339844 213.882812 175.339844 213.601562 C 175.339844 213.320312 175.367188 213.039062 175.425781 212.761719 C 175.480469 212.488281 175.558594 212.21875 175.667969 211.957031 C 175.777344 211.699219 175.910156 211.453125 176.066406 211.21875 C 176.222656 210.984375 176.398438 210.765625 176.597656 210.566406 C 176.796875 210.367188 177.015625 210.191406 177.25 210.035156 C 177.484375 209.878906 177.730469 209.746094 177.992188 209.636719 C 178.253906 209.53125 178.519531 209.449219 178.796875 209.394531 C 179.074219 209.339844 179.351562 209.3125 179.636719 209.3125 C 179.917969 209.3125 180.195312 209.339844 180.472656 209.394531 C 180.75 209.449219 181.019531 209.53125 181.277344 209.636719 C 181.539062 209.746094 181.785156 209.878906 182.019531 210.035156 C 182.253906 210.191406 182.472656 210.367188 182.671875 210.566406 C 182.871094 210.765625 183.046875 210.984375 183.203125 211.21875 C 183.363281 211.453125 183.492188 211.699219 183.601562 211.957031 C 183.710938 212.21875 183.792969 212.488281 183.847656 212.761719 C 183.902344 213.039062 183.929688 213.320312 183.929688 213.601562 Z M 183.929688 213.601562 " fill-opacity="1" fill-rule="nonzero"/><path fill="rgb(18.429565%, 18.03894%, 25.489807%)" d="M 184.726562 210.058594 C 184.320312 209.179688 183.730469 208.449219 182.957031 207.863281 C 182.183594 207.28125 181.320312 206.914062 180.363281 206.765625 C 180.695312 206.914062 181.003906 207.101562 181.289062 207.328125 C 181.574219 207.554688 181.828125 207.8125 182.050781 208.097656 C 182.273438 208.386719 182.457031 208.699219 182.605469 209.03125 C 182.75 209.367188 182.851562 209.710938 182.914062 210.070312 C 182.972656 210.429688 182.988281 210.792969 182.960938 211.15625 C 182.933594 211.515625 182.863281 211.871094 182.746094 212.214844 C 182.628906 212.5625 182.476562 212.886719 182.277344 213.195312 C 182.082031 213.503906 181.851562 213.78125 181.589844 214.03125 L 182.457031 213.285156 C 182.699219 213.492188 182.980469 213.609375 183.296875 213.628906 C 183.617188 213.652344 183.910156 213.578125 184.179688 213.410156 C 184.730469 213.039062 185.03125 212.523438 185.082031 211.859375 C 185.125 211.226562 185.003906 210.628906 184.726562 210.058594 Z M 184.726562 210.058594 " fill-opacity="1" fill-rule="nonzero"/><path fill="rgb(100%, 71.369934%, 71.369934%)" d="M 239.382812 255.421875 C 239.125 255.292969 238.859375 255.195312 238.582031 255.125 C 238.304688 255.054688 238.023438 255.011719 237.738281 255.003906 C 237.453125 254.996094 237.167969 255.015625 236.886719 255.070312 C 236.605469 255.121094 236.335938 255.207031 236.070312 255.316406 C 235.808594 255.429688 235.5625 255.570312 235.328125 255.738281 C 235.097656 255.902344 234.886719 256.09375 234.695312 256.304688 C 234.503906 256.519531 234.339844 256.75 234.199219 257 C 234.058594 257.25 233.949219 257.511719 233.867188 257.785156 L 224.96875 258.683594 L 224.199219 264.21875 L 236.746094 262.769531 C 237.214844 262.878906 237.6875 262.898438 238.164062 262.835938 C 238.640625 262.769531 239.089844 262.621094 239.511719 262.390625 C 239.9375 262.160156 240.304688 261.859375 240.617188 261.496094 C 240.929688 261.128906 241.167969 260.71875 241.328125 260.265625 C 241.492188 259.816406 241.570312 259.347656 241.558594 258.867188 C 241.550781 258.386719 241.457031 257.921875 241.277344 257.476562 C 241.097656 257.027344 240.84375 256.628906 240.519531 256.277344 C 240.191406 255.921875 239.8125 255.636719 239.382812 255.421875 Z M 239.382812 255.421875 " fill-opacity="1" fill-rule="nonzero"/><path fill="rgb(4.708862%, 45.489502%, 56.079102%)" d="M 204.582031 267.335938 C 203.664062 267.117188 202.972656 266.601562 202.511719 265.777344 C 200.9375 263.101562 189.246094 252.171875 189.371094 251.691406 L 186.921875 248.054688 C 186.90625 247.910156 186.480469 244.058594 188.367188 241.890625 C 188.769531 241.433594 189.25 241.078125 189.808594 240.832031 C 190.367188 240.585938 190.949219 240.464844 191.558594 240.476562 C 196.726562 240.34375 209.710938 256.671875 209.878906 258.527344 L 225.386719 258.082031 L 230.804688 256.582031 L 231.964844 263.671875 L 224.128906 266.953125 C 223.578125 267.347656 212.398438 269.253906 204.582031 267.335938 Z M 204.582031 267.335938 " fill-opacity="1" fill-rule="nonzero"/></svg>